<!DOCTYPE svg PUBLIC "-//W3C//DTD SVG 1.1//EN" "http://www.w3.org/Graphics/SVG/1.1/DTD/svg11.dtd">
<!-- Uploaded to: SVG Repo, www.svgrepo.com, Transformed by: SVG Repo Mixer Tools -->
<svg version="1.1" id="Layer_1" xmlns="http://www.w3.org/2000/svg" xmlns:xlink="http://www.w3.org/1999/xlink" viewBox="0 0 511.843 511.843" xml:space="preserve" width="800px" height="800px" fill="#000000">
<g id="SVGRepo_bgCarrier" stroke-width="0"/>
<g id="SVGRepo_tracerCarrier" stroke-linecap="round" stroke-linejoin="round"/>
<g id="SVGRepo_iconCarrier"> <polygon style="fill:#646C77;" points="451.033,92.304 255.921,22.542 63.417,92.554 11.878,235.626 501.018,235.626 "/> <path style="fill:#424953;" d="M511.843,241.296c0-1.273-0.219-2.491-0.625-3.624l-50.672-152L255.921,9.438L51.296,85.673 l-50.664,152C0.226,238.805,0,240.023,0,241.296c0,5.889,4.772,10.669,10.661,10.669h53.983c5.889,0,10.668-4.78,10.668-10.669 s-4.78-10.661-10.668-10.661h-39.2l39.628-118.861l3.226-9.685l9.56-3.562l178.063-66.332l178.07,66.332l9.56,3.562l3.218,9.685 l39.629,118.861h-39.191c-5.904,0-10.684,4.772-10.684,10.661s4.779,10.669,10.684,10.669h53.983v-0.008 C507.064,251.957,511.843,247.186,511.843,241.296z"/> <polygon style="fill:#EC5564;" points="469.199,246.474 426.525,118.514 254.796,54.532 85.309,118.514 42.65,246.474 42.65,502.405 469.199,502.405 "/> <path style="fill:#FECD57;" d="M149.289,491.734c-5.881,0-10.668-4.795-10.668-10.668v-127.96c0-5.873,4.788-10.653,10.668-10.653 h213.255c5.889,0,10.685,4.78,10.685,10.653v127.961c0,5.873-4.796,10.668-10.685,10.668H149.289V491.734z"/> <g> <path style="fill:#F5BA45;" d="M362.544,331.784H149.289c-11.73,0-21.329,9.607-21.329,21.322v127.961 c0,11.746,9.599,21.338,21.329,21.338h213.255c11.747,0,21.338-9.592,21.338-21.338v-127.96 C383.882,341.392,374.291,331.784,362.544,331.784z M362.544,481.036c0,0-0.016,0.031-0.031,0.031H149.328 c-0.016,0-0.031-0.031-0.031-0.031l-0.008-127.898c0.008,0,0.023-0.016,0.039-0.031h213.185c0.016,0.016,0.031,0.031,0.031,0.031 V481.036z"/> <path style="fill:#F5BA45;" d="M362.544,342.453h-13.87l-92.753,61.825l-92.745-61.825h-13.887c-5.428,0-9.911,4.062-10.575,9.31 l97.986,65.324l-97.986,65.324c0.664,5.248,5.147,9.324,10.575,9.324h13.887l92.745-61.824l92.753,61.824h13.87 c5.437,0,9.92-4.076,10.591-9.324l-98.001-65.324l98.001-65.324C372.464,346.514,367.981,342.453,362.544,342.453z"/> </g> <rect x="152.291" y="164.421" style="fill:#5E9CEA;" width="207.25" height="100.13"/> <g> <path style="fill:#D94452;" d="M149.289,161.173v106.631h213.255V161.173H149.289z M341.238,246.474H170.611v-63.98h170.627 L341.238,246.474L341.238,246.474z"/> <rect x="245.261" y="173.421" style="fill:#D94452;" width="21.321" height="80.31"/> </g> </g>
</svg>